# xmcd
#
# Track frame offsets:
#	150
#	11632
#	21672
#	35365
#	48355
#	59750
#	73832
#	84985
#	97582
#	108732
#	117922
#	129797
#	141457
#	154845
#	165692
#	176090
#	186260
#	194190
#	206727
#	218637
#	230717
#	239020
#	250100
#	256750
#	263820
#	274762
#
# Disc length: 3800 seconds
#
# Revision: 3
# Processed by: cddbd v1.4PL0 Copyright (c) Steve Scherf et al.
# Submitted via: MusicManager 7.0.1.0 
#
DISCID=890ed61a
DTITLE=Various Artist - 101 Blues and Soul Classics 2
DYEAR=1989
DGENRE=
TTITLE0=Del Vikings - Come Go With Me
TTITLE1=Price, Lloyd  - Where Were You On Your Wedding Day
TTITLE2=Cadets - Stranded In The Jungle
TTITLE3=Price, Lloyd  - Just Because
TTITLE4=James, Etta  and Peaches - Dance White Me Henry
TTITLE5=Neville, Aaron - Tell It Like It Is
TTITLE6=Falcons - Your're So Fine
TTITLE7=McCracklin, Jimmy  - The Walk
TTITLE8=Benton, Brook  - So many Ways
TTITLE9=Cortez, Dave `Baby` - Happy Organ
TTITLE10=Jive Five - My True Story
TTITLE11=Turner, Ike and Tina  - Poor Fool
TTITLE12=Turner, Ike and Tina  - It's Gonna Work Out Fine
TTITLE13=Foxx, Inez and Charlie - Count The Days I M Gone
TTITLE14=Thunder, Johnny  - Loop Le Loop
TTITLE15=Lee, Jackie  - The Duck
TTITLE16=Brown, James  - Please Please Please
TTITLE17=Price, Lloyd  - Misty
TTITLE18=Hunt, Tommy  - Human
TTITLE19=Hebb, Bobby  - Sunny
TTITLE20=Til, Sonny and Orioles - Crying In The Chapel
TTITLE21=Platters, The  - With This Ring
TTITLE22=Turner, Sammy  - Always
TTITLE23=Turner, Sammy  - Paradise
TTITLE24=K'doe, Ernie  - Mother In Love
TTITLE25=Jackson, Chuck  - I Don't Want To Cry
EXTD=
EXTT0=
EXTT1=
EXTT2=
EXTT3=
EXTT4=
EXTT5=
EXTT6=
EXTT7=
EXTT8=
EXTT9=
EXTT10=
EXTT11=
EXTT12=
EXTT13=
EXTT14=
EXTT15=
EXTT16=
EXTT17=
EXTT18=
EXTT19=
EXTT20=
EXTT21=
EXTT22=
EXTT23=
EXTT24=
EXTT25=
PLAYORDER=
